HIERARCHY
ROOT Hips
{
	OFFSET 0.000000 83.214638 0.000000
	CHANNELS 6 Xposition Yposition Zposition Xrotation Yrotation Zrotation
	JOINT Pelvis
	{
		OFFSET 0.000000 0.000000 0.000000
		CHANNELS 3 Xrotation Yrotation Zrotation
		JOINT LeftUpLeg
		{
			OFFSET 8.479700 -4.795502 -0.379100
			CHANNELS 3 Xrotation Yrotation Zrotation
			JOINT LeftLeg
			{
				OFFSET 0.024144 -32.555107 0.112900
				CHANNELS 3 Xrotation Yrotation Zrotation
				JOINT LeftFoot
				{
					OFFSET -0.024144 -32.638630 -3.012600
					CHANNELS 3 Xrotation Yrotation Zrotation
					JOINT LeftToeBase
					{
						OFFSET 0.970200 -13.225400 11.864200
						CHANNELS 3 Xrotation Yrotation Zrotation
						End Site
						{
							OFFSET 0.000000 12.319262 0.000000
						}
					}
					JOINT LFootTongue
					{
						OFFSET 1.142400 -1.059800 6.665200
						CHANNELS 3 Xrotation Yrotation Zrotation
						End Site
						{
							OFFSET 0.000000 12.319262 0.000000
						}
					}
				}
				JOINT LeftPantLeg
				{
					OFFSET 0.918482 -16.533964 -2.284700
					CHANNELS 3 Xrotation Yrotation Zrotation
					End Site
					{
						OFFSET 0.350399 24.744368 0.000000
					}
				}
			}
		}
		JOINT RightUpLeg
		{
			OFFSET -8.479700 -4.795502 -0.379100
			CHANNELS 3 Xrotation Yrotation Zrotation
			JOINT RightLeg
			{
				OFFSET -0.023144 -32.555092 0.112900
				CHANNELS 3 Xrotation Yrotation Zrotation
				JOINT RightFoot
				{
					OFFSET 0.023144 -32.638641 -3.012700
					CHANNELS 3 Xrotation Yrotation Zrotation
					JOINT RightToeBase
					{
						OFFSET -0.970200 -13.225400 11.864200
						CHANNELS 3 Xrotation Yrotation Zrotation
						End Site
						{
							OFFSET 0.000000 12.319244 0.000000
						}
					}
					JOINT RFootTongue
					{
						OFFSET -1.142200 -1.059800 6.665200
						CHANNELS 3 Xrotation Yrotation Zrotation
						End Site
						{
							OFFSET 0.000000 12.319243 0.000000
						}
					}
				}
				JOINT RightPantLeg
				{
					OFFSET -0.919482 -16.533978 -2.284800
					CHANNELS 3 Xrotation Yrotation Zrotation
					End Site
					{
						OFFSET -0.350400 24.744419 0.000000
					}
				}
			}
		}
	}
	JOINT Spine
	{
		OFFSET 0.000000 7.722000 1.166200
		CHANNELS 3 Xrotation Yrotation Zrotation
		JOINT Spine1
		{
			OFFSET 0.000000 12.024101 0.248800
			CHANNELS 3 Xrotation Yrotation Zrotation
			JOINT Spine2
			{
				OFFSET 0.000000 11.502998 -0.491200
				CHANNELS 3 Xrotation Yrotation Zrotation
				JOINT Neck
				{
					OFFSET 0.000000 18.430702 -3.123100
					CHANNELS 3 Xrotation Yrotation Zrotation
					JOINT Head
					{
						OFFSET 0.000000 9.051102 1.034000
						CHANNELS 3 Xrotation Yrotation Zrotation
						JOINT HairB
						{
							OFFSET 0.208400 24.786102 24.822300
							CHANNELS 3 Xrotation Yrotation Zrotation
							End Site
							{
								OFFSET 0.000000 32.263779 0.000000
							}
						}
						JOINT HairA
						{
							OFFSET -7.081100 24.428299 23.196600
							CHANNELS 3 Xrotation Yrotation Zrotation
							End Site
							{
								OFFSET 0.000000 32.263779 0.000000
							}
						}
						JOINT Hat
						{
							OFFSET 16.728800 15.048294 -15.439601
							CHANNELS 3 Xrotation Yrotation Zrotation
							End Site
							{
								OFFSET 0.000000 32.263779 0.000000
							}
						}
					}
				}
				JOINT LeftShoulder
				{
					OFFSET 6.197800 13.665199 -4.064700
					CHANNELS 3 Xrotation Yrotation Zrotation
					JOINT LeftArm
					{
						OFFSET 7.778100 -0.187103 -1.709300
						CHANNELS 3 Xrotation Yrotation Zrotation
						JOINT LeftForeArm
						{
							OFFSET 22.049376 0.000000 0.000000
							CHANNELS 3 Xrotation Yrotation Zrotation
							JOINT LeftHand
							{
								OFFSET 23.009392 0.000000 0.000000
								CHANNELS 3 Xrotation Yrotation Zrotation
								JOINT LeftHandThumb1
								{
									OFFSET 3.507191 -2.063065 3.133727
									CHANNELS 3 Xrotation Yrotation Zrotation
									JOINT LeftHandThumb2
									{
										OFFSET 3.101337 -1.790558 1.790558
										CHANNELS 3 Xrotation Yrotation Zrotation
										JOINT LeftHandThumb3
										{
											OFFSET 3.058640 -1.765907 1.765906
											CHANNELS 3 Xrotation Yrotation Zrotation
											End Site
											{
												OFFSET -0.415260 3.926476 -0.049563
											}
										}
									}
								}
								JOINT LeftHandIndex1
								{
									OFFSET 11.334419 -0.901459 3.706815
									CHANNELS 3 Xrotation Yrotation Zrotation
									JOINT LeftHandIndex2
									{
										OFFSET 3.283112 0.000000 0.000000
										CHANNELS 3 Xrotation Yrotation Zrotation
										JOINT LeftHandIndex3
										{
											OFFSET 3.323853 0.000000 0.000000
											CHANNELS 3 Xrotation Yrotation Zrotation
											End Site
											{
												OFFSET -1.135597 3.097809 0.402452
											}
										}
									}
								}
								JOINT LeftHandMiddle1
								{
									OFFSET 11.335861 0.000000 0.000000
									CHANNELS 3 Xrotation Yrotation Zrotation
									JOINT LeftHandMiddle2
									{
										OFFSET 3.410492 0.000000 0.000000
										CHANNELS 3 Xrotation Yrotation Zrotation
										JOINT LeftHandMiddle3
										{
											OFFSET 3.312172 0.000000 0.000000
											CHANNELS 3 Xrotation Yrotation Zrotation
											End Site
											{
												OFFSET -1.150200 3.080154 0.400270
											}
										}
									}
								}
								JOINT LeftHandRing1
								{
									OFFSET 11.514786 -0.013176 -3.003090
									CHANNELS 3 Xrotation Yrotation Zrotation
									JOINT LeftHandRing2
									{
										OFFSET 3.053307 0.000000 0.000000
										CHANNELS 3 Xrotation Yrotation Zrotation
										JOINT LeftHandRing3
										{
											OFFSET 3.295807 0.000000 0.000000
											CHANNELS 3 Xrotation Yrotation Zrotation
											End Site
											{
												OFFSET -1.281006 3.013344 0.375733
											}
										}
									}
								}
								JOINT LeftHandPinky1
								{
									OFFSET 10.518692 -0.960396 -5.730441
									CHANNELS 3 Xrotation Yrotation Zrotation
									JOINT LeftHandPinky2
									{
										OFFSET 2.861649 0.000000 0.000000
										CHANNELS 3 Xrotation Yrotation Zrotation
										JOINT LeftHandPinky3
										{
											OFFSET 2.863380 0.000000 0.000000
											CHANNELS 3 Xrotation Yrotation Zrotation
											End Site
											{
												OFFSET -0.843597 2.711159 0.369971
											}
										}
									}
								}
							}
							JOINT LSleeve
							{
								OFFSET 6.676277 -0.344902 -1.011730
								CHANNELS 3 Xrotation Yrotation Zrotation
								End Site
								{
									OFFSET 0.000000 14.885353 0.000000
								}
							}
						}
					}
				}
				JOINT RightShoulder
				{
					OFFSET -6.197800 13.665199 -4.064700
					CHANNELS 3 Xrotation Yrotation Zrotation
					JOINT RightArm
					{
						OFFSET -7.778100 -0.187103 -1.709300
						CHANNELS 3 Xrotation Yrotation Zrotation
						JOINT RightForeArm
						{
							OFFSET -22.049376 0.000000 0.000000
							CHANNELS 3 Xrotation Yrotation Zrotation
							JOINT RightHand
							{
								OFFSET -23.009392 0.000000 0.000000
								CHANNELS 3 Xrotation Yrotation Zrotation
								JOINT RightHandThumb1
								{
									OFFSET -3.507191 -2.063065 3.133727
									CHANNELS 3 Xrotation Yrotation Zrotation
									JOINT RightHandThumb2
									{
										OFFSET -3.101337 -1.790558 1.790558
										CHANNELS 3 Xrotation Yrotation Zrotation
										JOINT RightHandThumb3
										{
											OFFSET -3.058640 -1.765907 1.765906
											CHANNELS 3 Xrotation Yrotation Zrotation
											End Site
											{
												OFFSET 0.415260 3.926476 -0.049563
											}
										}
									}
								}
								JOINT RightHandIndex1
								{
									OFFSET -11.334419 -0.901459 3.706815
									CHANNELS 3 Xrotation Yrotation Zrotation
									JOINT RightHandIndex2
									{
										OFFSET -3.283112 0.000000 0.000000
										CHANNELS 3 Xrotation Yrotation Zrotation
										JOINT RightHandIndex3
										{
											OFFSET -3.323853 0.000000 0.000000
											CHANNELS 3 Xrotation Yrotation Zrotation
											End Site
											{
												OFFSET 1.135597 3.097809 0.402452
											}
										}
									}
								}
								JOINT RightHandMiddle1
								{
									OFFSET -11.335861 0.000000 0.000000
									CHANNELS 3 Xrotation Yrotation Zrotation
									JOINT RightHandMiddle2
									{
										OFFSET -3.410492 0.000000 0.000000
										CHANNELS 3 Xrotation Yrotation Zrotation
										JOINT RightHandMiddle3
										{
											OFFSET -3.312172 0.000000 0.000000
											CHANNELS 3 Xrotation Yrotation Zrotation
											End Site
											{
												OFFSET 1.150200 3.080154 0.400270
											}
										}
									}
								}
								JOINT RightHandRing1
								{
									OFFSET -11.514786 -0.013176 -3.003090
									CHANNELS 3 Xrotation Yrotation Zrotation
									JOINT RightHandRing2
									{
										OFFSET -3.053307 0.000000 0.000000
										CHANNELS 3 Xrotation Yrotation Zrotation
										JOINT RightHandRing3
										{
											OFFSET -3.295807 0.000000 0.000000
											CHANNELS 3 Xrotation Yrotation Zrotation
											End Site
											{
												OFFSET 1.281006 3.013344 0.375733
											}
										}
									}
								}
								JOINT RightHandPinky1
								{
									OFFSET -10.518692 -0.960396 -5.730441
									CHANNELS 3 Xrotation Yrotation Zrotation
									JOINT RightHandPinky2
									{
										OFFSET -2.861649 0.000000 0.000000
										CHANNELS 3 Xrotation Yrotation Zrotation
										JOINT RightHandPinky3
										{
											OFFSET -2.863380 0.000000 0.000000
											CHANNELS 3 Xrotation Yrotation Zrotation
											End Site
											{
												OFFSET 0.843597 2.711159 0.369971
											}
										}
									}
								}
							}
							JOINT RSleeve
							{
								OFFSET -6.676277 -0.344902 -1.011730
								CHANNELS 3 Xrotation Yrotation Zrotation
								End Site
								{
									OFFSET 0.000000 14.885353 0.000000
								}
							}
						}
					}
				}
				JOINT Backpack
				{
					OFFSET 0.000000 -2.471497 36.677502
					CHANNELS 3 Xrotation Yrotation Zrotation
					End Site
					{
						OFFSET 0.000000 20.427315 0.000000
					}
				}
				JOINT Hood
				{
					OFFSET 0.000000 18.754097 -10.431000
					CHANNELS 3 Xrotation Yrotation Zrotation
					JOINT Hood1
					{
						OFFSET 0.000000 -5.011002 -7.685901
						CHANNELS 3 Xrotation Yrotation Zrotation
						End Site
						{
							OFFSET 0.000000 9.175140 0.000000
						}
					}
				}
				JOINT LHoodieString
				{
					OFFSET 5.250500 16.397697 3.089900
					CHANNELS 3 Xrotation Yrotation Zrotation
					JOINT LHoodieString1
					{
						OFFSET 0.257700 -6.364304 3.694600
						CHANNELS 3 Xrotation Yrotation Zrotation
						JOINT LHoodieString2
						{
							OFFSET 0.000000 -9.643799 2.679100
							CHANNELS 3 Xrotation Yrotation Zrotation
							End Site
							{
								OFFSET 0.000000 10.009018 0.000000
							}
						}
					}
				}
				JOINT RHoodieString
				{
					OFFSET -5.250500 16.397697 3.089900
					CHANNELS 3 Xrotation Yrotation Zrotation
					JOINT RHoodieString1
					{
						OFFSET -0.257700 -6.364304 3.694600
						CHANNELS 3 Xrotation Yrotation Zrotation
						JOINT RHoodieString2
						{
							OFFSET 0.000000 -9.643799 2.679100
							CHANNELS 3 Xrotation Yrotation Zrotation
							End Site
							{
								OFFSET 0.000000 10.009018 0.000000
							}
						}
					}
				}
			}
			JOINT LBackpack_Strap
			{
				OFFSET 15.223200 -7.719803 -6.610900
				CHANNELS 3 Xrotation Yrotation Zrotation
				End Site
				{
					OFFSET 0.000000 16.040596 0.000000
				}
			}
			JOINT RBackpack_Strap
			{
				OFFSET -15.223000 -7.719803 -6.610900
				CHANNELS 3 Xrotation Yrotation Zrotation
				End Site
				{
					OFFSET 0.000000 16.040596 0.000000
				}
			}
		}
	}
	JOINT BoyFacialAnim_Joint
	{
		OFFSET 1.000000 -82.208099 -1.550900
		CHANNELS 3 Xrotation Yrotation Zrotation
		End Site
		{
			OFFSET 0.000000 30.012791 0.000000
		}
	}
}
MOTION
Frames: 4
Frame Time: 0.033333
-8.594807 65.725288 -6.360302 36.737313 -10.382169 -7.469093 -0.000003 0.000000 -0.000000 -88.120765 -2.600383 4.853170 79.079138 9.898042 10.032914 -27.868543 10.935141 -6.531659 0.000000 -0.000001 0.000000 0.000000 -0.000001 0.000000 0.000000 0.000000 -0.000000 -93.606035 15.306403 18.374430 68.686049 -5.259687 9.945256 -17.085300 -11.279530 5.598305 0.000000 0.000000 -0.000000 0.000000 0.000000 -0.000000 0.000001 0.000000 -0.000000 22.073770 2.345305 4.259366 -2.400300 0.223233 0.439677 -2.402003 0.248995 0.420672 -14.610425 -4.891479 10.658481 -36.539750 -11.648725 2.576687 -0.000000 0.000000 -0.000000 -0.000000 0.000000 -0.000000 -0.000000 0.000000 -0.000000 0.057937 -1.494759 21.597540 17.083941 -60.846078 -55.764929 -0.000007 -63.417541 -0.000010 45.379347 -12.630251 43.469462 -23.747478 24.860664 3.845249 4.009879 8.774947 0.812077 -0.000000 -0.000003 0.000000 -0.102401 -9.730717 -1.194490 0.097498 1.157066 -9.634562 0.000001 -0.000001 -0.000005 0.017190 -0.487243 4.040895 0.035101 0.695957 -5.776996 -0.000000 -0.000004 -0.000002 0.000007 0.001006 -0.008434 0.131510 1.342051 -11.193732 0.000001 0.000001 -0.000000 0.992700 11.663830 -4.338112 -0.005515 -3.695173 -3.487913 0.000002 -0.000001 0.000001 -0.000002 0.000002 -0.000001 0.027119 0.709997 -21.585309 -3.781988 53.712577 88.194708 -0.000019 68.287719 0.000005 25.655480 -3.482518 -43.537548 -18.160725 -13.356700 -5.634191 4.916895 -11.673547 -0.444069 -0.000005 -0.000000 -0.000000 -0.023310 4.674904 0.570993 0.097835 -1.164652 9.602998 -0.000000 -0.000002 0.000005 0.000001 0.000002 0.000005 0.084574 -1.083399 8.927186 0.000003 0.000000 0.000005 -0.000006 0.000000 -0.000003 0.078553 -1.044244 8.601973 -0.000001 -0.000000 0.000000 -0.051383 -6.929613 -0.848668 0.063308 -0.938033 7.721237 0.000001 0.000001 0.000000 -0.000001 -0.000001 -0.000001 -0.000000 -0.000001 0.000000 -0.000000 -0.000001 0.000000 -0.000000 -0.000001 0.000000 -0.000000 -0.000001 0.000000 -0.000000 -0.000001 -0.000000 0.000001 -0.000001 0.000001 -0.000000 -0.000001 0.000000 -0.000000 -0.000001 -0.000000 0.000001 -0.000001 0.000001 0.000002 0.000001 0.000001 0.000002 0.000001 0.000001 -0.000003 0.000000 -0.000000 
-8.649074 67.459274 -6.723312 42.354430 -11.355102 -8.109277 0.000001 -0.000000 -0.000000 -91.684505 -4.526741 5.512643 73.820500 9.900851 10.063548 -24.590001 10.275751 -6.825830 0.000000 -0.000000 0.000000 0.000000 -0.000000 0.000000 -0.000003 -0.000000 -0.000001 -95.390279 13.897018 17.804128 61.441540 -6.104779 9.115416 -13.563007 -10.504521 5.248013 -0.000000 -0.000000 0.000000 -0.000000 -0.000000 0.000000 0.000000 -0.000001 -0.000000 19.115833 4.035461 3.731550 -3.663936 0.302907 1.733730 -3.671771 0.390974 1.703943 -15.294271 -5.379517 10.770176 -38.757809 -13.630529 0.618439 -0.000000 -0.000000 -0.000000 -0.000000 -0.000000 -0.000000 -0.000000 -0.000000 -0.000000 1.118369 -5.384564 18.650742 23.106211 -58.715366 -51.953923 -0.000023 -67.754876 -0.000036 46.578817 -13.269535 43.508267 -23.751324 24.852968 3.854482 4.009878 8.774945 0.812078 0.000001 -0.000003 0.000001 -0.098242 -9.736218 -1.169815 0.097503 1.157065 -9.634562 -0.000001 0.000001 -0.000003 0.017001 -0.487086 4.018668 0.035118 0.695957 -5.776989 0.000003 0.000002 0.000001 -0.000010 -0.004440 0.015908 0.131526 1.342035 -11.193726 0.000002 0.000004 0.000002 0.987627 11.658790 -4.313091 -0.005536 -3.695167 -3.487907 -0.000001 -0.000002 0.000003 0.000001 0.000003 0.000000 0.001847 0.742444 -22.164268 1.945542 52.645701 85.125372 -0.000026 69.048814 0.000012 27.935054 -1.583872 -44.547590 -18.160730 -13.356701 -5.634189 4.916891 -11.673551 -0.444068 0.000003 -0.000000 -0.000001 -0.023314 4.674894 0.571002 0.097839 -1.164655 9.602991 -0.000002 0.000001 0.000004 -0.000004 0.000003 0.000017 0.084577 -1.083414 8.927185 0.000001 0.000000 0.000003 0.000001 0.000003 0.000005 0.078530 -1.044267 8.601968 -0.000003 0.000001 0.000004 -0.051384 -6.929620 -0.848648 0.063302 -0.938033 7.721236 0.000001 -0.000001 0.000000 -0.000000 -0.000001 -0.000002 -0.000002 0.000000 -0.000000 -0.000002 0.000000 -0.000000 -0.000002 0.000000 -0.000000 -0.000002 0.000000 -0.000000 -0.000002 0.000000 -0.000000 -0.000001 0.000000 -0.000000 -0.000002 0.000000 -0.000000 -0.000002 0.000000 -0.000000 -0.000001 0.000000 -0.000000 0.000001 -0.000000 0.000000 0.000001 -0.000000 0.000000 0.000001 -0.000000 -0.000000 
-8.701059 69.244476 -6.726582 45.182965 -11.115855 -8.500508 -0.000001 -0.000001 -0.000000 -91.838983 -4.841039 5.866205 68.298975 9.912906 10.098178 -21.937524 9.006170 -6.889722 0.000000 -0.000000 -0.000000 0.000000 -0.000000 0.000000 -0.000001 -0.000001 0.000000 -93.920914 12.597427 17.287719 54.934006 -7.443158 6.637348 -10.722366 -9.478790 5.634469 0.000000 -0.000000 0.000000 0.000000 -0.000000 0.000000 -0.000002 -0.000000 0.000000 16.617787 5.116493 3.069993 -3.980473 0.367988 2.610661 -3.995513 0.483891 2.572861 -15.062801 -5.755720 10.859893 -41.566117 -15.562303 -1.626418 -0.000000 -0.000002 -0.000000 -0.000000 -0.000002 -0.000000 -0.000000 -0.000002 -0.000000 1.970499 -9.499263 15.593532 25.231728 -54.710433 -50.811574 -0.000030 -69.249444 -0.000024 48.754782 -15.445052 42.820245 -23.793222 24.769013 3.955151 4.009881 8.774946 0.812077 -0.000000 0.000002 0.000000 -0.080457 -9.776474 -1.065038 0.097502 1.157066 -9.634562 -0.000003 -0.000001 -0.000000 0.017565 -0.521460 4.074793 0.035124 0.695953 -5.776989 0.000003 0.000000 0.000000 0.000080 -0.044544 0.119226 0.131513 1.342040 -11.193733 0.000002 0.000002 -0.000000 0.966168 11.620506 -4.206539 -0.005535 -3.695172 -3.487913 -0.000001 0.000002 -0.000002 -0.000002 0.000001 0.000001 0.178897 1.250052 -21.994210 5.178740 49.895191 83.510544 0.000007 68.864426 0.000007 28.613428 -0.980177 -43.363215 -18.160729 -13.356697 -5.634193 4.916891 -11.673553 -0.444068 -0.000006 0.000000 0.000000 -0.023323 4.674892 0.570993 0.097836 -1.164658 9.602994 -0.000001 0.000001 0.000005 -0.000005 0.000001 -0.000004 0.084564 -1.083427 8.927184 0.000001 -0.000001 0.000001 -0.000008 -0.000008 -0.000002 0.078545 -1.044226 8.601994 -0.000000 0.000001 -0.000001 -0.051384 -6.929614 -0.848668 0.063307 -0.938040 7.721241 -0.000000 0.000000 0.000000 -0.000000 -0.000000 0.000003 0.000002 0.000000 -0.000000 0.000002 0.000000 -0.000000 0.000002 0.000000 -0.000000 0.000002 0.000000 -0.000000 0.000002 0.000000 -0.000000 0.000002 0.000000 -0.000000 0.000002 0.000000 -0.000000 0.000002 0.000000 -0.000000 0.000002 0.000000 -0.000000 0.000001 0.000000 0.000000 0.000001 0.000000 0.000000 -0.000001 -0.000001 -0.000000 
-8.704169 70.979446 -6.452984 46.195663 -10.172826 -8.835528 0.000001 -0.000000 0.000001 -89.948687 -3.983107 6.109695 62.808767 9.929673 10.135520 -19.804207 7.129437 -6.721305 0.000000 -0.000000 -0.000000 0.000000 -0.000000 -0.000000 0.000001 0.000001 -0.000000 -90.373518 11.148677 16.207486 48.943852 -8.669651 4.142644 -8.495049 -7.785874 5.881158 -0.000000 0.000000 -0.000000 -0.000000 0.000000 -0.000000 -0.000000 -0.000000 -0.000001 15.119968 5.378140 2.943363 -4.033911 0.389684 2.941494 -4.052444 0.507233 2.900801 -14.510228 -6.102934 11.141871 -43.714034 -17.088739 -3.760891 0.000000 0.000002 0.000000 0.000000 0.000002 0.000000 0.000000 0.000002 0.000000 2.330281 -12.383594 12.407485 25.079396 -50.018148 -51.490624 -0.000002 -67.728463 -0.000020 52.481384 -18.882176 42.004536 -23.876270 24.601607 4.155657 4.009878 8.774946 0.812077 -0.000001 -0.000002 0.000000 -0.045171 -9.856251 -0.859427 0.097505 1.157065 -9.634556 -0.000000 -0.000001 -0.000004 0.019344 -0.595195 4.229680 0.035103 0.695947 -5.776992 -0.000001 -0.000002 -0.000000 0.000604 -0.124077 0.321925 0.131517 1.342031 -11.193726 -0.000000 0.000002 0.000002 0.924467 11.544354 -3.997623 -0.005530 -3.695178 -3.487896 0.000002 0.000003 0.000000 -0.000001 -0.000003 0.000002 0.554091 2.212889 -21.007060 6.824920 46.272503 83.157471 -0.000027 68.285479 0.000023 28.080101 -1.400791 -40.266906 -18.160727 -13.356698 -5.634193 4.916891 -11.673551 -0.444067 0.000002 0.000001 -0.000003 -0.023311 4.674902 0.571002 0.097830 -1.164676 9.603001 -0.000001 0.000001 0.000002 -0.000000 0.000001 0.000006 0.084580 -1.083399 8.927189 0.000001 -0.000000 0.000003 -0.000000 0.000004 0.000010 0.078538 -1.044244 8.601982 0.000003 -0.000000 0.000000 -0.051375 -6.929607 -0.848660 0.063303 -0.938036 7.721250 0.000001 0.000000 -0.000003 -0.000001 -0.000001 0.000001 0.000000 0.000000 -0.000000 0.000000 0.000000 -0.000000 0.000000 0.000000 -0.000000 0.000000 0.000000 -0.000000 0.000000 0.000000 -0.000000 0.000004 0.000000 -0.000000 0.000000 0.000000 -0.000000 0.000000 0.000000 -0.000000 0.000004 0.000000 -0.000000 -0.000001 -0.000000 -0.000000 -0.000001 -0.000000 -0.000000 0.000001 -0.000000 0.000001 
